{"title":"After Earth 2013 HDRiP XViD UNiQUE","uid":8929148,"size":1519491288,"categoryP":"video","categoryS":"movies","magnet":"?xt=urn:btih:30c0cbf01e2ae5876efcb5e5b787f9f63c120164&amp;dn=After+Earth+2013+HDRiP+XViD+UNiQUE&amp;tr=udp%3A%2F%2Ftracker.openbittorrent.com%3A80&amp;tr=udp%3A%2F%2Fopen.demonii.com%3A1337&amp;tr=udp%3A%2F%2Ftracker.coppersurfer.tk%3A6969&amp;tr=udp%3A%2F%2Fexodus.desync.com%3A6969","seeders":1,"leechers":0,"uploader":"xxxlavalxxx","files":-1,"time":1379434220,"description":" &lt;a href=&quot;\nhttp://www.imdb.com/title/tt1815862/&quot; rel=&quot;nofollow&quot; target=&quot;_NEW&quot;&gt;\nhttp://www.imdb.com/title/tt1815862/&lt;/a&gt;\n\n\n\nOne thousand years after cataclysmic events forced humanity's escape from Earth, Nova Prime has become mankind's new home. Legendary General Cypher Raige returns from an extended tour of duty to his estranged family, ready to be a father to his 13-year-old son, Kitai. When an asteroid storm damages Cypher and Kitai's craft, they crash-land on a now unfamiliar and dangerous Earth. As his father lies dying in the cockpit, Kitai must trek across the hostile terrain to recover their rescue beacon. His whole life, Kitai has wanted nothing more than to be a soldier like his father. Today, he gets his chance.\n\n\n\nDirector:\n M. Night Shyamalan \n\nWriters:\n Gary Whitta (screenplay), M. Night Shyamalan (screenplay)\n\nStars:\n Jaden Smith, Will Smith, Sophie Okonedo \n\nGenres:\n  Action |  Adventure |  Sci-Fi \n\nCountry:\n USA \n\nLanguage:\n English \n\n\nFormat                                   : AVI\n Format/Info                              : Audio Video Interleave\n File size                                : 1.41 GiB\n Duration                                 : 1h 40mn\n Overall bit rate                         : 2 014 Kbps\n Writing application                      : VirtualDubMod 1.5.10.2 (build 2540/release)\n Writing library                          : VirtualDubMod build 2540/release\n\n Video\n ID                                       : 0\n Format                                   : MPEG-4 Visual\n Format profile                           : Advanced Simple@L5\n Format settings, BVOP                    : 2\n Format settings, QPel                    : No\n Format settings, GMC                     : No warppoints\n Format settings, Matrix                  : Default (H.263)\n Muxing mode                              : Packed bitstream\n Codec ID                                 : XVID\n Codec ID/Hint                            : XviD\n Duration                                 : 1h 40mn\n Bit rate                                 : 1 812 Kbps\n Width                                    : 720 pixels\n Height                                   : 298 pixels\n Display aspect ratio                     : 2.40:1\n Frame rate                               : 23.976 fps\n Color space                              : YUV\n Chroma subsampling                       : 4:2:0\n Bit depth                                : 8 bits\n Scan type                                : Progressive\n Compression mode                         : Lossy\n Bits/(Pixel*Frame)                       : 0.352\n Stream size                              : 1.27 GiB (90%)\n Writing library                          : XviD 64\n\n Audio\n ID                                       : 1\n Format                                   : AC-3\n Format/Info                              : Audio Coding 3\n Mode extension                           : CM (complete main)\n Format settings, Endianness              : Big\n Codec ID                                 : 2000\n Duration                                 : 1h 40mn\n Bit rate mode                            : Constant\n Bit rate                                 : 192 Kbps\n Channel(s)                               : 2 channels\n Channel positions                        : Front: L R\n Sampling rate                            : 48.0 KHz\n Bit depth                                : 16 bits\n Compression mode                         : Lossy\n Stream size                              : 137 MiB (10%)\n Alignment                                : Split accross interleaves\n Interleave, duration                     : 42 ms (1.00 video frame)\n Interleave, preload duration             : 500 ms\n\n\nSource Used   After.Earth.2013.720p.WEB-DL.Rus.Eng.HDC - Thanks\n\n\n &lt;a href=&quot;\nhttp://bayimg.com/OApGBAaek&quot; rel=&quot;nofollow&quot; target=&quot;_NEW&quot;&gt;\nhttp://bayimg.com/OApGBAaek&lt;/a&gt; &lt;a href=&quot;\nhttp://bayimg.com/oAPgcAaek&quot; rel=&quot;nofollow&quot; target=&quot;_NEW&quot;&gt;\nhttp://bayimg.com/oAPgcAaek&lt;/a&gt;","torrent":{"xt":"urn:btih:30c0cbf01e2ae5876efcb5e5b787f9f63c120164","amp;dn":"After+Earth+2013+HDRiP+XViD+UNiQUE","amp;tr":["udp%3A%2F%2Ftracker.openbittorrent.com%3A80","udp%3A%2F%2Fopen.demonii.com%3A1337","udp%3A%2F%2Ftracker.coppersurfer.tk%3A6969","udp%3A%2F%2Fexodus.desync.com%3A6969"],"infoHash":"30c0cbf01e2ae5876efcb5e5b787f9f63c120164","infoHashBuffer":{"type":"Buffer","data":[48,192,203,240,30,42,229,135,110,252,181,229,183,135,249,246,60,18,1,100]},"announce":[],"urlList":[]}}